<?xml version="1.0" encoding="UTF-8"?>
<!-- Do not edit this file with editors other than draw.io -->
<!DOCTYPE svg PUBLIC "-//W3C//DTD SVG 1.1//EN" "http://www.w3.org/Graphics/SVG/1.1/DTD/svg11.dtd">
<svg xmlns="http://www.w3.org/2000/svg" xmlns:xlink="http://www.w3.org/1999/xlink" version="1.1" width="59px" height="59px" viewBox="-0.5 -0.5 59 59" content="&lt;mxfile host=&quot;app.diagrams.net&quot; modified=&quot;2023-12-08T09:57:41.580Z&quot; agent=&quot;Mozilla/5.0 (Windows NT 10.0; Win64; x64; rv:120.0) Gecko/20100101 Firefox/120.0&quot; etag=&quot;nmuUru0Kt66bbmLp-TJU&quot; version=&quot;22.1.7&quot; type=&quot;device&quot;&gt;&#xA;  &lt;diagram name=&quot;Page-1&quot; id=&quot;NdeNCPbdHVtsloEa9yov&quot;&gt;&#xA;    &lt;mxGraphModel dx=&quot;1434&quot; dy=&quot;782&quot; grid=&quot;1&quot; gridSize=&quot;10&quot; guides=&quot;1&quot; tooltips=&quot;1&quot; connect=&quot;1&quot; arrows=&quot;1&quot; fold=&quot;1&quot; page=&quot;1&quot; pageScale=&quot;1&quot; pageWidth=&quot;850&quot; pageHeight=&quot;1100&quot; math=&quot;0&quot; shadow=&quot;0&quot;&gt;&#xA;      &lt;root&gt;&#xA;        &lt;mxCell id=&quot;0&quot; /&gt;&#xA;        &lt;mxCell id=&quot;1&quot; parent=&quot;0&quot; /&gt;&#xA;        &lt;mxCell id=&quot;4LRXOIuZe437VO9_QroF-1&quot; value=&quot;&quot; style=&quot;sketch=0;pointerEvents=1;shadow=0;dashed=0;html=1;strokeColor=none;fillColor=#000000;labelPosition=center;verticalLabelPosition=bottom;verticalAlign=top;outlineConnect=0;align=center;shape=mxgraph.office.users.user_accounts;gradientColor=none;&quot; vertex=&quot;1&quot; parent=&quot;1&quot;&gt;&#xA;          &lt;mxGeometry x=&quot;390&quot; y=&quot;370&quot; width=&quot;59&quot; height=&quot;59&quot; as=&quot;geometry&quot; /&gt;&#xA;        &lt;/mxCell&gt;&#xA;      &lt;/root&gt;&#xA;    &lt;/mxGraphModel&gt;&#xA;  &lt;/diagram&gt;&#xA;&lt;/mxfile&gt;&#xA;"><defs/><g><rect x="0" y="0" width="59" height="59" fill="none" stroke="none" pointer-events="all"/><path d="M 0 40.33 L 0 8.22 L 24.65 8.22 L 24.65 10.46 L 2.24 10.46 L 2.24 38.09 L 15.68 38.09 L 15.68 40.33 Z M 52.28 32.11 L 52.28 29.87 L 56.76 29.87 L 56.76 2.24 L 29.13 2.24 L 29.13 24.64 L 26.89 24.64 L 26.89 0 L 59 0 L 59 32.11 Z M 20.16 56.76 L 47.8 56.76 L 47.8 29.13 L 20.16 29.13 Z M 17.92 59 L 17.92 26.89 L 50.04 26.89 L 50.04 59 Z M 16.06 24.08 C 13.61 24.08 11.43 22.04 11.43 18.9 C 11.43 16.47 13.27 13.97 15.97 13.97 C 18.61 13.97 20.54 16.38 20.54 19.02 C 20.54 22.06 18.26 24.08 16.06 24.08 Z M 6.72 34.27 C 6.94 32.03 7.22 28.98 7.76 27.42 C 8.01 26.73 8.36 26.22 8.95 25.8 C 9.32 25.52 10.66 24.78 10.91 24.67 C 11.34 24.44 11.78 24.32 12.17 24.67 C 13.2 25.58 14.44 26.07 15.68 26.14 L 15.68 34.27 Z M 43.03 15.88 C 40.59 15.88 38.4 13.84 38.4 10.7 C 38.4 8.27 40.25 5.79 42.95 5.79 C 45.58 5.79 47.51 8.2 47.51 10.82 C 47.51 13.87 45.24 15.88 43.03 15.88 Z M 33.73 24.64 C 33.94 22.4 34.2 20.78 34.73 19.24 C 34.97 18.53 35.34 18.02 35.92 17.61 C 36.3 17.33 37.63 16.59 37.88 16.47 C 38.31 16.24 38.76 16.12 39.13 16.47 C 41.4 18.47 44.55 18.42 46.85 16.47 C 47.12 16.2 47.55 16.27 47.82 16.38 C 48.27 16.55 49.68 17.39 49.94 17.56 C 50.73 18.06 51.14 18.75 51.46 20.04 C 51.86 21.76 51.99 23.07 52.16 24.64 Z M 33.99 42.75 C 31.54 42.75 29.36 40.71 29.36 37.57 C 29.36 35.14 31.2 32.65 33.9 32.65 C 36.53 32.65 38.46 35.06 38.46 37.69 C 38.46 40.74 36.19 42.75 33.99 42.75 Z M 24.65 52.95 C 24.85 50.71 25.14 47.65 25.68 46.1 C 25.93 45.4 26.29 44.89 26.87 44.47 C 27.24 44.19 28.59 43.46 28.84 43.34 C 29.27 43.11 29.7 42.99 30.08 43.34 C 32.36 45.34 35.5 45.28 37.8 43.34 C 38.07 43.07 38.5 43.14 38.78 43.25 C 39.21 43.42 40.63 44.25 40.9 44.42 C 41.68 44.93 42.1 45.62 42.41 46.9 C 42.81 48.62 43.05 50.83 43.32 52.95 Z" fill="#000000" stroke="none" pointer-events="all"/></g></svg>